<svg width="22" height="28" viewBox="0 0 22 28" fill="none" xmlns="http://www.w3.org/2000/svg">
<path d="M6.66811 10.6677C6.68192 9.61112 7.10779 8.60171 7.85496 7.85454C8.60213 7.10737 9.61154 6.6815 10.6681 6.66769C11.7247 6.6815 12.7341 7.10737 13.4813 7.85454C14.2284 8.60171 14.6543 9.61112 14.6681 10.6677C14.6543 11.7243 14.2284 12.7337 13.4813 13.4808C12.7341 14.228 11.7247 14.6539 10.6681 14.6677C9.61154 14.6539 8.60213 14.228 7.85496 13.4808C7.10779 12.7337 6.68192 11.7243 6.66811 10.6677ZM10.6681 22.6677L16.0014 24.001V19.8944C14.393 20.863 12.5455 21.3618 10.6681 21.3344C8.79074 21.3618 6.94321 20.863 5.33478 19.8944V24.001M10.6681 2.66769C9.6174 2.64852 8.57387 2.84444 7.60167 3.24341C6.62946 3.64238 5.74913 4.23597 5.01478 4.98769C4.25493 5.72285 3.65447 6.60649 3.25076 7.58365C2.84705 8.56082 2.64872 9.6106 2.66811 10.6677C2.65422 11.7181 2.85522 12.7602 3.25876 13.7301C3.66231 14.7 4.25988 15.5772 5.01478 16.3077C5.74571 17.0666 6.6245 17.6676 7.59687 18.0736C8.56924 18.4795 9.61451 18.6817 10.6681 18.6677C11.7217 18.6817 12.767 18.4795 13.7394 18.0736C14.7117 17.6676 15.5905 17.0666 16.3214 16.3077C17.0763 15.5772 17.6739 14.7 18.0775 13.7301C18.481 12.7602 18.682 11.7181 18.6681 10.6677C18.6875 9.6106 18.4892 8.56082 18.0855 7.58365C17.6817 6.60649 17.0813 5.72285 16.3214 4.98769C15.5871 4.23597 14.7068 3.64238 13.7346 3.24341C12.7623 2.84444 11.7188 2.64852 10.6681 2.66769ZM21.3348 10.6677C21.3075 11.9477 21.0501 13.2123 20.5748 14.401C20.1487 15.6114 19.5022 16.7325 18.6681 17.7077V28.001L10.6681 25.3344L2.66811 28.001V17.7077C0.942363 15.7696 -0.00722159 13.2627 0.00144401 10.6677C-0.0220558 9.26847 0.241493 7.87928 0.775821 6.58589C1.31015 5.2925 2.10391 4.12235 3.10811 3.14769C4.08638 2.13449 5.26193 1.33254 6.56219 0.791332C7.86246 0.250128 9.25985 -0.0188417 10.6681 0.00102559C12.0764 -0.0188417 13.4738 0.250128 14.774 0.791332C16.0743 1.33254 17.2498 2.13449 18.2281 3.14769C19.2323 4.12235 20.0261 5.2925 20.5604 6.58589C21.0947 7.87928 21.3583 9.26847 21.3348 10.6677Z" fill="black"/>
</svg>
