<svg width="27" height="27" viewBox="0 0 27 27" fill="none" xmlns="http://www.w3.org/2000/svg">
<path d="M13.3333 26.6667C11.4889 26.6667 9.75556 26.3164 8.13334 25.616C6.51111 24.9156 5.1 23.9658 3.9 22.7667C2.7 21.5676 1.75022 20.1564 1.05067 18.5333C0.351113 16.9102 0.000890577 15.1769 1.68776e-06 13.3333C-0.000887201 11.4898 0.349335 9.75644 1.05067 8.13333C1.752 6.51022 2.70178 5.09911 3.9 3.9C5.09822 2.70089 6.50934 1.75111 8.13334 1.05067C9.75734 0.350222 11.4907 0 13.3333 0C15.176 0 16.9093 0.350222 18.5333 1.05067C20.1573 1.75111 21.5684 2.70089 22.7667 3.9C23.9649 5.09911 24.9151 6.51022 25.6173 8.13333C26.3196 9.75644 26.6693 11.4898 26.6667 13.3333C26.664 15.1769 26.3138 16.9102 25.616 18.5333C24.9182 20.1564 23.9684 21.5676 22.7667 22.7667C21.5649 23.9658 20.1538 24.916 18.5333 25.6173C16.9129 26.3187 15.1796 26.6684 13.3333 26.6667ZM13.3333 24C16.3111 24 18.8333 22.9667 20.9 20.9C22.9667 18.8333 24 16.3111 24 13.3333C24 10.3556 22.9667 7.83333 20.9 5.76667C18.8333 3.7 16.3111 2.66667 13.3333 2.66667C10.3556 2.66667 7.83333 3.7 5.76667 5.76667C3.7 7.83333 2.66667 10.3556 2.66667 13.3333C2.66667 16.3111 3.7 18.8333 5.76667 20.9C7.83333 22.9667 10.3556 24 13.3333 24ZM13.3333 21.3333C11.1111 21.3333 9.22222 20.5556 7.66667 19C6.11111 17.4444 5.33334 15.5556 5.33334 13.3333C5.33334 11.1111 6.11111 9.22222 7.66667 7.66667C9.22222 6.11111 11.1111 5.33333 13.3333 5.33333C15.5556 5.33333 17.4444 6.11111 19 7.66667C20.5556 9.22222 21.3333 11.1111 21.3333 13.3333C21.3333 15.5556 20.5556 17.4444 19 19C17.4444 20.5556 15.5556 21.3333 13.3333 21.3333ZM13.3333 18.6667C14.8 18.6667 16.0556 18.1444 17.1 17.1C18.1444 16.0556 18.6667 14.8 18.6667 13.3333C18.6667 11.8667 18.1444 10.6111 17.1 9.56667C16.0556 8.52222 14.8 8 13.3333 8C11.8667 8 10.6111 8.52222 9.56667 9.56667C8.52222 10.6111 8 11.8667 8 13.3333C8 14.8 8.52222 16.0556 9.56667 17.1C10.6111 18.1444 11.8667 18.6667 13.3333 18.6667ZM13.3333 16C12.6 16 11.9724 15.7391 11.4507 15.2173C10.9289 14.6956 10.6676 14.0676 10.6667 13.3333C10.6658 12.5991 10.9271 11.9716 11.4507 11.4507C11.9742 10.9298 12.6018 10.6684 13.3333 10.6667C14.0649 10.6649 14.6929 10.9262 15.2173 11.4507C15.7418 11.9751 16.0027 12.6027 16 13.3333C15.9973 14.064 15.7364 14.692 15.2173 15.2173C14.6982 15.7427 14.0702 16.0036 13.3333 16Z" fill="black"/>
</svg>
