<svg width="26" height="26" viewBox="0 0 26 26" fill="none" xmlns="http://www.w3.org/2000/svg">
<path d="M12.6667 0C16.0261 0 19.2479 1.33452 21.6234 3.70998C23.9988 6.08544 25.3333 9.30726 25.3333 12.6667C25.3333 16.0261 23.9988 19.2479 21.6234 21.6234C19.2479 23.9988 16.0261 25.3333 12.6667 25.3333C9.30726 25.3333 6.08544 23.9988 3.70998 21.6234C1.33452 19.2479 0 16.0261 0 12.6667C0 9.30726 1.33452 6.08544 3.70998 3.70998C6.08544 1.33452 9.30726 0 12.6667 0ZM12.6667 1.33333C9.66088 1.33333 6.7782 2.52738 4.65279 4.65279C2.52738 6.7782 1.33333 9.66088 1.33333 12.6667C1.33333 15.6725 2.52738 18.5551 4.65279 20.6805C6.7782 22.806 9.66088 24 12.6667 24C14.155 24 15.6287 23.7069 17.0037 23.1373C18.3788 22.5677 19.6281 21.7329 20.6805 20.6805C21.7329 19.6281 22.5677 18.3788 23.1373 17.0037C23.7069 15.6287 24 14.155 24 12.6667C24 9.66088 22.806 6.7782 20.6805 4.65279C18.5551 2.52738 15.6725 1.33333 12.6667 1.33333ZM12 5.33333H13.3333V12.56L19.6 16.1733L18.9333 17.3333L12 13.3333V5.33333Z" fill="black"/>
</svg>
