<svg width="32" height="26" viewBox="0 0 32 26" fill="none" xmlns="http://www.w3.org/2000/svg">
<path d="M4.66136 7.3318C4.66163 6.06769 4.98866 4.82511 5.61072 3.72465C6.23278 2.62418 7.12875 1.7032 8.21168 1.05109C9.29461 0.398978 10.5277 0.0378739 11.7913 0.0028205C13.055 -0.0322329 14.3062 0.259955 15.4236 0.85103C16.541 1.44211 17.4867 2.31199 18.1688 3.37628C18.8509 4.44057 19.2463 5.66311 19.3167 6.92526C19.387 8.18742 19.1299 9.44633 18.5703 10.5798C18.0106 11.7133 17.1675 12.6829 16.1227 13.3945C18.3727 14.2197 20.3243 15.6994 21.7262 17.6431C23.1282 19.5869 23.9164 21.9057 23.9894 24.3011C23.9863 24.5594 23.8835 24.8065 23.7025 24.9908C23.5215 25.175 23.2763 25.2822 23.0181 25.29C22.76 25.2977 22.5088 25.2054 22.3171 25.0323C22.1254 24.8592 22.0079 24.6188 21.9894 24.3611C21.91 21.7631 20.8221 19.298 18.9563 17.4884C17.0904 15.6787 14.5933 14.6666 11.994 14.6666C9.39476 14.6666 6.89762 15.6787 5.0318 17.4884C3.16598 19.298 2.0781 21.7631 1.9987 24.3611C1.98535 24.6222 1.87027 24.8677 1.67811 25.045C1.48595 25.2223 1.232 25.3173 0.97066 25.3096C0.70932 25.302 0.461378 25.1923 0.27995 25.004C0.0985228 24.8157 -0.00195987 24.5639 2.89704e-05 24.3025C0.0727641 21.9068 0.860838 19.5877 2.26281 17.6437C3.66478 15.6997 5.61648 14.2198 7.86669 13.3945C6.8788 12.7217 6.07033 11.8176 5.51168 10.7609C4.95302 9.70425 4.66111 8.52705 4.66136 7.3318ZM11.9947 1.99847C10.5802 1.99847 9.22365 2.56037 8.22346 3.56057C7.22326 4.56076 6.66136 5.91732 6.66136 7.3318C6.66136 8.74629 7.22326 10.1028 8.22346 11.103C9.22365 12.1032 10.5802 12.6651 11.9947 12.6651C13.4092 12.6651 14.7657 12.1032 15.7659 11.103C16.7661 10.1028 17.328 8.74629 17.328 7.3318C17.328 5.91732 16.7661 4.56076 15.7659 3.56057C14.7657 2.56037 13.4092 1.99847 11.9947 1.99847ZM23.048 7.3318C22.8516 7.3318 22.6587 7.34514 22.4694 7.3718C22.3372 7.39547 22.2016 7.39228 22.0706 7.3624C21.9397 7.33253 21.8162 7.27659 21.7073 7.19792C21.5985 7.11925 21.5066 7.01947 21.4372 6.90452C21.3677 6.78958 21.3221 6.66182 21.3032 6.52888C21.2842 6.39594 21.2921 6.26053 21.3266 6.13074C21.3611 6.00095 21.4214 5.87944 21.5038 5.77344C21.5863 5.66745 21.6892 5.57914 21.8066 5.51381C21.9239 5.44847 22.0532 5.40743 22.1867 5.39314C23.5128 5.20141 24.865 5.45607 26.0305 6.11704C27.196 6.77801 28.1087 7.80776 28.6248 9.04424C29.141 10.2807 29.2313 11.6537 28.8817 12.9472C28.532 14.2406 27.7622 15.3811 26.6934 16.1891C28.2645 16.8927 29.5986 18.0358 30.5345 19.4806C31.4705 20.9255 31.9683 22.6103 31.968 24.3318C31.968 24.597 31.8627 24.8514 31.6751 25.0389C31.4876 25.2264 31.2332 25.3318 30.968 25.3318C30.7028 25.3318 30.4485 25.2264 30.2609 25.0389C30.0734 24.8514 29.968 24.597 29.968 24.3318C29.9685 22.8438 29.4894 21.3954 28.6017 20.2012C27.714 19.007 26.465 18.1308 25.04 17.7025L24.328 17.4891V15.2545L24.8747 14.9758C25.685 14.5653 26.3334 13.8937 26.7151 13.0695C27.0968 12.2452 27.1896 11.3163 26.9785 10.4328C26.7673 9.54932 26.2646 8.76275 25.5515 8.20011C24.8383 7.63746 23.9564 7.33156 23.048 7.3318Z" fill="#008236"/>
</svg>
