<svg width="23" height="27" viewBox="0 0 23 27" fill="none" xmlns="http://www.w3.org/2000/svg">
<path d="M18.927 3.8287C23.127 7.95936 23.127 14.57 18.983 18.646L11.4216 26.0834L3.85763 18.646C2.87391 17.6848 2.09225 16.5367 1.55858 15.2691C1.02491 14.0015 0.75 12.64 0.75 11.2647C0.75 9.88934 1.02491 8.52787 1.55858 7.26028C2.09225 5.99269 2.87391 4.84456 3.85763 3.88336L3.91363 3.8287C5.91385 1.85598 8.61027 0.75 11.4196 0.75C14.229 0.75 16.9267 1.85598 18.927 3.8287ZM18.927 3.8287C18.871 3.7727 18.871 3.7727 18.927 3.8287ZM14.0843 10.0834C14.0843 10.7906 13.8033 11.4689 13.3032 11.969C12.8031 12.4691 12.1249 12.75 11.4176 12.75C10.7104 12.75 10.0321 12.4691 9.53201 11.969C9.03191 11.4689 8.75096 10.7906 8.75096 10.0834C8.75096 9.37612 9.03191 8.69784 9.53201 8.19774C10.0321 7.69765 10.7104 7.4167 11.4176 7.4167C12.1249 7.4167 12.8031 7.69765 13.3032 8.19774C13.8033 8.69784 14.0843 9.37612 14.0843 10.0834Z" stroke="black" stroke-width="1.5" stroke-miterlimit="10" stroke-linecap="round" stroke-linejoin="round"/>
</svg>
