<svg width="27" height="27" viewBox="0 0 27 27" fill="none" xmlns="http://www.w3.org/2000/svg">
<path d="M25.6883 20.8743C24.6958 19.8743 22.2921 18.4149 21.1258 17.8268C19.6071 17.0618 19.4821 16.9993 18.2883 17.8862C17.4921 18.4781 16.9627 19.0068 16.0308 18.8081C15.099 18.6093 13.074 17.4887 11.3008 15.7212C9.52772 13.9537 8.3421 11.8699 8.14272 10.9412C7.94335 10.0124 8.48085 9.4893 9.0671 8.69117C9.89335 7.56617 9.83085 7.37867 9.1246 5.85992C8.57397 4.67867 7.0721 2.29742 6.06835 1.30992C4.9946 0.2493 4.9946 0.436799 4.30272 0.724299C3.73943 0.961245 3.19904 1.24933 2.68835 1.58492C1.68835 2.2493 1.13335 2.80117 0.745221 3.63055C0.357096 4.45992 0.182721 6.4043 2.1871 10.0455C4.19147 13.6868 5.59772 15.5487 8.50835 18.4512C11.419 21.3537 13.6571 22.9143 16.929 24.7493C20.9765 27.0162 22.529 26.5743 23.3608 26.1868C24.1927 25.7993 24.7471 25.2493 25.4127 24.2493C25.7492 23.7395 26.0379 23.1997 26.2752 22.6368C26.5633 21.9474 26.7508 21.9474 25.6883 20.8743Z" stroke="black" stroke-miterlimit="10"/>
</svg>
